<?xml version="1.0" encoding="UTF-8"?>
<svg xmlns="http://www.w3.org/2000/svg" viewBox="0 0 28.35 28.35">
  <defs>
    <style>
      .cls-1 {
        fill: #fff;
      }

      .cls-2 {
        fill: #2c2c2c;
      }
    </style>
  </defs>
  <g id="Layer_5" data-name="Layer 5">
    <rect class="cls-2" x="0" y="0" width="28.35" height="28.35"/>
  </g>
  <g id="Layer_4" data-name="Layer 4">
    <g>
      <path class="cls-2" d="M14.17,0c7.83,0,14.18,6.35,14.18,14.17s-6.35,14.18-14.18,14.18S0,22,0,14.17,6.35,0,14.17,0Zm9.86,16.27c.04-.67-.01-1.31-.17-1.92-.15-.61-.4-1.15-.75-1.63s-.8-.86-1.35-1.14c-.54-.28-1.18-.42-1.91-.42-.66,0-1.25,.11-1.79,.35-.54,.23-1,.55-1.4,.96-.39,.4-.68,.88-.9,1.44-.21,.55-.31,1.15-.31,1.8s.1,1.28,.3,1.83c.21,.56,.5,1.03,.88,1.43s.84,.71,1.39,.93,1.16,.33,1.83,.33c.98,0,1.81-.23,2.49-.67,.7-.45,1.2-1.19,1.54-2.22h-2.08c-.08,.26-.29,.52-.63,.76-.35,.24-.76,.36-1.24,.36-.66,0-1.17-.17-1.53-.52-.35-.35-.58-.99-.58-1.67h6.21Zm-1.88-6.18v-1.17h-4.81v1.17h4.81Zm-7.82,8.02c.23-.44,.34-.95,.34-1.56,0-.74-.17-1.37-.53-1.9s-.9-.9-1.64-1.11c.54-.26,.94-.58,1.22-.98,.27-.4,.4-.9,.4-1.5,0-.55-.09-1.02-.27-1.39-.18-.38-.44-.68-.77-.91-.34-.23-.74-.39-1.2-.49-.47-.1-.99-.15-1.55-.15H4.72v11.88h5.76c.54,0,1.06-.06,1.56-.2,.5-.13,.95-.33,1.35-.61,.39-.28,.71-.64,.94-1.08Z"/>
      <path class="cls-1" d="M23.86,14.35c.16,.61,.21,1.25,.17,1.92h-6.21c0,.68,.23,1.32,.58,1.67,.36,.35,.87,.52,1.53,.52,.48,0,.89-.12,1.24-.36,.34-.24,.55-.5,.63-.76h2.08c-.34,1.03-.84,1.77-1.54,2.22-.68,.44-1.51,.67-2.49,.67-.67,0-1.28-.11-1.83-.33s-1.01-.53-1.39-.93-.67-.87-.88-1.43c-.2-.55-.3-1.17-.3-1.83s.1-1.25,.31-1.8c.22-.56,.51-1.04,.9-1.44,.4-.41,.86-.73,1.4-.96,.54-.24,1.13-.35,1.79-.35,.73,0,1.37,.14,1.91,.42,.55,.28,1,.66,1.35,1.14s.6,1.02,.75,1.63Zm-6.04,.43h3.84c-.05-.6-.26-1.05-.54-1.36s-.76-.48-1.34-.48c-.38,0-.69,.06-.94,.19-.24,.13-.44,.29-.6,.48-.15,.19-.25,.39-.31,.6s-.1,.4-.11,.57Z"/>
      <rect class="cls-1" x="17.34" y="8.92" width="4.81" height="1.17"/>
      <path class="cls-2" d="M21.66,14.78h-3.84c.01-.17,.05-.36,.11-.57s.16-.41,.31-.6c.16-.19,.36-.35,.6-.48,.25-.13,.56-.19,.94-.19,.58,0,1.06,.17,1.34,.48s.49,.76,.54,1.36Z"/>
      <path class="cls-1" d="M14.67,16.55c0,.61-.11,1.12-.34,1.56s-.55,.8-.94,1.08c-.4,.28-.85,.48-1.35,.61-.5,.14-1.02,.2-1.56,.2H4.72V8.12h5.61c.56,0,1.08,.05,1.55,.15,.46,.1,.86,.26,1.2,.49,.33,.23,.59,.53,.77,.91,.18,.37,.27,.84,.27,1.39,0,.6-.13,1.1-.4,1.5-.28,.4-.68,.72-1.22,.98,.74,.21,1.28,.58,1.64,1.11s.53,1.16,.53,1.9Zm-2.76,.63c.1-.2,.15-.46,.15-.77,0-.61-.17-1.05-.51-1.31s-.8-.39-1.36-.39h-2.85v3.27h2.79c.26,0,.51-.02,.74-.08,.23-.05,.44-.13,.61-.25,.18-.11,.32-.27,.43-.47Zm-.32-5.67c0-.28-.05-.51-.15-.68-.1-.18-.23-.32-.4-.42s-.36-.17-.58-.21c-.21-.04-.44-.06-.67-.06h-2.45v2.78h2.65c.46,0,.85-.11,1.15-.33s.45-.58,.45-1.08Z"/>
      <path class="cls-2" d="M12.06,16.41c0,.31-.05,.57-.15,.77-.11,.2-.25,.36-.43,.47-.17,.12-.38,.2-.61,.25-.23,.06-.48,.08-.74,.08h-2.79v-3.27h2.85c.56,0,1.02,.13,1.36,.39s.51,.7,.51,1.31Z"/>
      <path class="cls-2" d="M11.44,10.83c.1,.17,.15,.4,.15,.68,0,.5-.15,.86-.45,1.08s-.69,.33-1.15,.33h-2.65v-2.78h2.45c.23,0,.46,.02,.67,.06,.22,.04,.41,.11,.58,.21s.3,.24,.4,.42Z"/>
    </g>
  </g>
</svg>