<?xml version="1.0" encoding="UTF-8"?>
<svg xmlns="http://www.w3.org/2000/svg" viewBox="0 0 28.35 28.35">
  <defs>
    <style>
      .cls-1 {
        fill: #fff;
      }

      .cls-2 {
        fill: #2c2c2c;
      }
    </style>
  </defs>
  <g id="Layer_5" data-name="Layer 5">
    <rect class="cls-2" y="0" width="28.35" height="28.35"/>
  </g>
  <g id="Layer_2" data-name="Layer 2">
    <g>
      <path class="cls-2" d="M17.18,7.56c1.23,0,2.53,.23,2.53,.23v2.84h-1.42c-1.41,0-1.85,.88-1.85,1.79v2.16h3.14l-.5,3.33h-2.64v8.04c-.57,.09-1.16,.14-1.77,.14s-1.19-.05-1.76-.14v-8.04h-2.88v-3.33h2.88v-2.53c0-2.89,1.68-4.49,4.27-4.49Z"/>
      <path class="cls-1" d="M18.29,10.63h1.42v-2.84s-1.3-.23-2.53-.23c-2.59,0-4.27,1.6-4.27,4.49v2.53h-2.88v3.33h2.88v8.04c-5.41-.86-9.55-5.63-9.55-11.37C3.36,8.22,8.43,3.07,14.67,3.07s11.32,5.15,11.32,11.51c0,5.74-4.15,10.51-9.55,11.37v-8.04h2.64l.5-3.33h-3.14v-2.16c0-.91,.44-1.79,1.85-1.79Z"/>
    </g>
  </g>
</svg>