<?xml version="1.0" encoding="UTF-8"?>
<svg id="Layer_6" data-name="Layer 6" xmlns="http://www.w3.org/2000/svg" viewBox="0 0 28.35 28.35">
  <defs>
    <style>
      .cls-1 {
        fill: #fff;
      }

      .cls-2 {
        fill: #2c2c2c;
      }
    </style>
  </defs>
  <path class="cls-2" d="M28.36,0V28.34H0V0H28.36ZM6.48,19.48c-1.03-.71,.07-.69,.07-.69,1.13,.08,1.73,1.16,1.73,1.16,1.01,1.74,2.64,1.24,3.28,.94,.1-.73,.39-1.23,.72-1.51-2.51-.29-5.14-1.25-5.14-5.59,0-1.23,.44-2.24,1.16-3.04-.12-.28-.5-1.44,.11-2.99,0,0,.95-.3,3.1,1.16,.9-.25,1.86-.37,2.83-.38,.96,.01,1.92,.13,2.82,.38,2.15-1.46,3.09-1.16,3.09-1.16,.62,1.56,.24,2.71,.12,2.99,.72,.8,1.16,1.81,1.16,3.04,0,4.34-2.64,5.3-5.15,5.59,.41,.34,.77,1.03,.77,2.09,0,1.51-.02,2.73-.02,3.1,0,.31,.2,.66,.78,.55,4.47-1.5,7.7-5.74,7.7-10.74,0-6.25-5.05-11.31-11.28-11.31S3.06,8.13,3.06,14.38c0,5,3.23,9.24,7.71,10.74,.57,.1,.77-.25,.77-.55,0-.27-.01-.98-.01-1.93-3.14,.69-3.8-1.51-3.8-1.51-.51-1.31-1.25-1.65-1.25-1.65Z"/>
  <path class="cls-1" d="M6.55,18.79s-1.1-.02-.07,.69c0,0,.74,.34,1.25,1.65,0,0,.66,2.2,3.8,1.51,0,.95,.01,1.66,.01,1.93,0,.3-.2,.65-.77,.55-4.48-1.5-7.71-5.74-7.71-10.74C3.06,8.13,8.11,3.07,14.33,3.07s11.28,5.06,11.28,11.31c0,5-3.23,9.24-7.7,10.74-.58,.11-.78-.24-.78-.55,0-.37,.02-1.59,.02-3.1,0-1.06-.36-1.75-.77-2.09,2.51-.29,5.15-1.25,5.15-5.59,0-1.23-.44-2.24-1.16-3.04,.12-.28,.5-1.43-.12-2.99,0,0-.94-.3-3.09,1.16-.9-.25-1.86-.37-2.82-.38-.97,.01-1.93,.13-2.83,.38-2.15-1.46-3.1-1.16-3.1-1.16-.61,1.55-.23,2.71-.11,2.99-.72,.8-1.16,1.81-1.16,3.04,0,4.34,2.63,5.3,5.14,5.59-.33,.28-.62,.78-.72,1.51-.64,.3-2.27,.8-3.28-.94,0,0-.6-1.08-1.73-1.16Z"/>
</svg>