<?xml version="1.0" encoding="UTF-8"?>
<svg xmlns="http://www.w3.org/2000/svg" viewBox="0 0 28.35 28.35">
  <defs>
    <style>
      .cls-1 {
        fill: #fff;
      }

      .cls-2 {
        fill: #2c2c2c;
      }
    </style>
  </defs>
  <g id="Layer_5" data-name="Layer 5">
    <rect class="cls-2" y="0" width="28.35" height="28.35"/>
  </g>
  <g id="Layer_1" data-name="Layer 1">
    <g>
      <path class="cls-2" d="M14.34-.11c7.83,0,14.17,6.35,14.17,14.17s-6.34,14.18-14.17,14.18S.17,21.89,.17,14.06,6.51-.11,14.34-.11Zm8.92,14.17c0-2.42-.01-2.72-.05-3.68-.04-.95-.19-1.59-.41-2.16-.23-.59-.54-1.09-1.03-1.58s-1-.8-1.58-1.03c-.57-.22-1.22-.37-2.17-.42-.95-.04-1.26-.05-3.68-.05s-2.73,.01-3.68,.05c-.95,.05-1.6,.2-2.16,.42-.59,.23-1.09,.53-1.58,1.03-.5,.49-.81,.99-1.03,1.58-.22,.57-.38,1.21-.42,2.16-.04,.96-.05,1.26-.05,3.68s.01,2.73,.05,3.68,.2,1.6,.42,2.17c.22,.59,.53,1.08,1.03,1.58,.49,.5,.99,.8,1.58,1.03,.56,.22,1.21,.37,2.16,.41,.95,.05,1.26,.06,3.68,.06s2.73-.01,3.68-.06c.95-.04,1.6-.19,2.17-.41,.58-.23,1.08-.53,1.58-1.03,.49-.5,.8-.99,1.03-1.58,.22-.57,.37-1.22,.41-2.17s.05-1.25,.05-3.68Z"/>
      <path class="cls-1" d="M19.1,8.23c.6,0,1.08,.48,1.08,1.07s-.48,1.07-1.08,1.07-1.07-.48-1.07-1.07,.48-1.07,1.07-1.07Z"/>
      <path class="cls-2" d="M14.34,11.09c1.64,0,2.98,1.33,2.98,2.97s-1.34,2.98-2.98,2.98-2.97-1.33-2.97-2.98,1.33-2.97,2.97-2.97Z"/>
      <path class="cls-1" d="M17.32,14.06c0-1.64-1.34-2.97-2.98-2.97s-2.97,1.33-2.97,2.97,1.33,2.98,2.97,2.98,2.98-1.33,2.98-2.98Zm-7.56,0c0-2.53,2.05-4.58,4.58-4.58s4.58,2.05,4.58,4.58-2.05,4.59-4.58,4.59-4.58-2.06-4.58-4.59Z"/>
      <path class="cls-2" d="M20.18,9.3c0-.59-.48-1.07-1.08-1.07s-1.07,.48-1.07,1.07,.48,1.07,1.07,1.07,1.08-.48,1.08-1.07Zm-10.42,4.76c0,2.53,2.05,4.59,4.58,4.59s4.58-2.06,4.58-4.59-2.05-4.58-4.58-4.58-4.58,2.05-4.58,4.58Zm.98-7.26c.94-.04,1.22-.05,3.6-.05s2.67,0,3.61,.05c.87,.04,1.34,.18,1.65,.31,.42,.16,.72,.35,1.03,.66,.31,.32,.51,.61,.67,1.03,.12,.31,.27,.79,.31,1.66,.04,.94,.05,1.22,.05,3.6s-.01,2.67-.05,3.61c-.04,.87-.19,1.34-.31,1.66-.16,.41-.36,.71-.67,1.02s-.61,.51-1.03,.67c-.31,.12-.78,.27-1.65,.31-.94,.04-1.23,.05-3.61,.05s-2.66-.01-3.6-.05c-.87-.04-1.35-.19-1.66-.31-.42-.16-.72-.36-1.03-.67s-.5-.61-.67-1.02c-.12-.32-.26-.79-.3-1.66-.05-.94-.05-1.22-.05-3.61s0-2.66,.05-3.6c.04-.87,.18-1.35,.3-1.66,.17-.42,.36-.71,.67-1.03,.31-.31,.61-.5,1.03-.66,.31-.13,.79-.27,1.66-.31Z"/>
      <path class="cls-1" d="M14.34,6.75c-2.38,0-2.66,0-3.6,.05-.87,.04-1.35,.18-1.66,.31-.42,.16-.72,.35-1.03,.66-.31,.32-.5,.61-.67,1.03-.12,.31-.26,.79-.3,1.66-.05,.94-.05,1.22-.05,3.6s0,2.67,.05,3.61c.04,.87,.18,1.34,.3,1.66,.17,.41,.36,.71,.67,1.02s.61,.51,1.03,.67c.31,.12,.79,.27,1.66,.31,.94,.04,1.22,.05,3.6,.05s2.67-.01,3.61-.05c.87-.04,1.34-.19,1.65-.31,.42-.16,.72-.36,1.03-.67s.51-.61,.67-1.02c.12-.32,.27-.79,.31-1.66,.04-.94,.05-1.22,.05-3.61s-.01-2.66-.05-3.6c-.04-.87-.19-1.35-.31-1.66-.16-.42-.36-.71-.67-1.03-.31-.31-.61-.5-1.03-.66-.31-.13-.78-.27-1.65-.31-.94-.04-1.23-.05-3.61-.05Zm0,16.24c-2.42,0-2.73-.01-3.68-.06-.95-.04-1.6-.19-2.16-.41-.59-.23-1.09-.53-1.58-1.03-.5-.5-.81-.99-1.03-1.58-.22-.57-.38-1.22-.42-2.17s-.05-1.25-.05-3.68,.01-2.72,.05-3.68c.04-.95,.2-1.59,.42-2.16,.22-.59,.53-1.09,1.03-1.58,.49-.5,.99-.8,1.58-1.03,.56-.22,1.21-.37,2.16-.42,.95-.04,1.26-.05,3.68-.05s2.73,.01,3.68,.05c.95,.05,1.6,.2,2.17,.42,.58,.23,1.08,.53,1.58,1.03s.8,.99,1.03,1.58c.22,.57,.37,1.21,.41,2.16,.04,.96,.05,1.26,.05,3.68s-.01,2.73-.05,3.68-.19,1.6-.41,2.17c-.23,.59-.54,1.08-1.03,1.58-.5,.5-1,.8-1.58,1.03-.57,.22-1.22,.37-2.17,.41-.95,.05-1.26,.06-3.68,.06Z"/>
    </g>
  </g>
</svg>