<svg width="141" height="53" viewBox="0 0 141 53" fill="none" xmlns="http://www.w3.org/2000/svg">
<path d="M14.08 21L12.016 15.696H5.224L3.184 21H1L7.696 3.792H9.64L16.312 21H14.08ZM9.448 8.592C9.4 8.464 9.32 8.232 9.208 7.896C9.096 7.56 8.984 7.216 8.872 6.864C8.776 6.496 8.696 6.216 8.632 6.024C8.552 6.344 8.464 6.672 8.368 7.008C8.288 7.328 8.2 7.624 8.104 7.896C8.024 8.168 7.952 8.4 7.888 8.592L5.944 13.776H11.368L9.448 8.592ZM37.0161 3.864L30.6321 21H28.5681L34.9521 3.864H37.0161ZM51.9458 3.864L45.5618 21H43.4978L49.8818 3.864H51.9458ZM66.8755 3.864L60.4915 21H58.4275L64.8115 3.864H66.8755ZM81.8052 3.864L75.4212 21H73.3572L79.7412 3.864H81.8052ZM96.7349 3.864L90.3509 21H88.2869L94.6709 3.864H96.7349ZM118.865 21L113.225 5.976H113.129C113.161 6.296 113.185 6.704 113.201 7.2C113.233 7.696 113.257 8.24 113.273 8.832C113.289 9.408 113.297 10 113.297 10.608V21H111.305V3.864H114.497L119.777 17.904H119.873L125.249 3.864H128.417V21H126.281V10.464C126.281 9.904 126.289 9.352 126.305 8.808C126.321 8.248 126.345 7.728 126.377 7.248C126.409 6.752 126.433 6.336 126.449 6H126.353L120.641 21H118.865ZM7.864 34.864C10.104 34.864 11.736 35.304 12.76 36.184C13.784 37.064 14.296 38.304 14.296 39.904C14.296 40.608 14.176 41.288 13.936 41.944C13.712 42.584 13.336 43.16 12.808 43.672C12.28 44.184 11.576 44.592 10.696 44.896C9.816 45.184 8.736 45.328 7.456 45.328H5.488V52H3.328V34.864H7.864ZM7.672 36.712H5.488V43.48H7.216C8.304 43.48 9.208 43.368 9.928 43.144C10.648 42.904 11.184 42.528 11.536 42.016C11.888 41.504 12.064 40.832 12.064 40C12.064 38.896 11.712 38.072 11.008 37.528C10.304 36.984 9.192 36.712 7.672 36.712ZM32.8113 43.408C32.8113 44.736 32.6433 45.944 32.3073 47.032C31.9713 48.104 31.4673 49.032 30.7953 49.816C30.1393 50.6 29.3153 51.2 28.3233 51.616C27.3473 52.032 26.2113 52.24 24.9153 52.24C23.5713 52.24 22.4033 52.032 21.4113 51.616C20.4193 51.184 19.5953 50.584 18.9393 49.816C18.2833 49.032 17.7953 48.096 17.4753 47.008C17.1553 45.92 16.9953 44.712 16.9953 43.384C16.9953 41.624 17.2833 40.088 17.8593 38.776C18.4353 37.464 19.3073 36.44 20.4753 35.704C21.6593 34.968 23.1473 34.6 24.9393 34.6C26.6513 34.6 28.0913 34.968 29.2593 35.704C30.4273 36.424 31.3073 37.448 31.8993 38.776C32.5073 40.088 32.8113 41.632 32.8113 43.408ZM19.2753 43.408C19.2753 44.848 19.4753 46.088 19.8753 47.128C20.2753 48.168 20.8913 48.968 21.7233 49.528C22.5713 50.088 23.6353 50.368 24.9153 50.368C26.2113 50.368 27.2673 50.088 28.0833 49.528C28.9153 48.968 29.5313 48.168 29.9313 47.128C30.3313 46.088 30.5312 44.848 30.5312 43.408C30.5312 41.248 30.0833 39.56 29.1873 38.344C28.2913 37.112 26.8753 36.496 24.9393 36.496C23.6433 36.496 22.5713 36.776 21.7233 37.336C20.8913 37.88 20.2753 38.672 19.8753 39.712C19.4753 40.736 19.2753 41.968 19.2753 43.408ZM41.3372 34.864C42.7613 34.864 43.9293 35.048 44.8413 35.416C45.7693 35.768 46.4573 36.304 46.9053 37.024C47.3533 37.744 47.5773 38.648 47.5773 39.736C47.5773 40.648 47.4093 41.408 47.0733 42.016C46.7373 42.624 46.3053 43.112 45.7773 43.48C45.2653 43.832 44.7213 44.112 44.1453 44.32L48.8493 52H46.3293L42.1773 44.92H38.7693V52H36.6093V34.864H41.3372ZM41.2173 36.736H38.7693V43.096H41.3372C42.2653 43.096 43.0253 42.976 43.6173 42.736C44.2093 42.48 44.6413 42.112 44.9133 41.632C45.2013 41.152 45.3453 40.552 45.3453 39.832C45.3453 39.08 45.1933 38.48 44.8893 38.032C44.6013 37.584 44.1533 37.256 43.5453 37.048C42.9373 36.84 42.1613 36.736 41.2173 36.736ZM56.9629 52H54.8029V36.76H49.4509V34.864H62.2909V36.76H56.9629V52ZM67.0349 52H64.8749V34.864H74.4509V36.76H67.0349V42.832H73.9949V44.728H67.0349V52ZM92.2722 43.408C92.2722 44.736 92.1042 45.944 91.7682 47.032C91.4322 48.104 90.9282 49.032 90.2562 49.816C89.6002 50.6 88.7762 51.2 87.7842 51.616C86.8082 52.032 85.6722 52.24 84.3762 52.24C83.0322 52.24 81.8642 52.032 80.8722 51.616C79.8802 51.184 79.0562 50.584 78.4002 49.816C77.7442 49.032 77.2562 48.096 76.9362 47.008C76.6162 45.92 76.4562 44.712 76.4562 43.384C76.4562 41.624 76.7442 40.088 77.3202 38.776C77.8962 37.464 78.7682 36.44 79.9362 35.704C81.1202 34.968 82.6082 34.6 84.4002 34.6C86.1122 34.6 87.5522 34.968 88.7202 35.704C89.8882 36.424 90.7682 37.448 91.3602 38.776C91.9682 40.088 92.2722 41.632 92.2722 43.408ZM78.7362 43.408C78.7362 44.848 78.9362 46.088 79.3362 47.128C79.7362 48.168 80.3522 48.968 81.1842 49.528C82.0322 50.088 83.0962 50.368 84.3762 50.368C85.6722 50.368 86.7282 50.088 87.5442 49.528C88.3762 48.968 88.9922 48.168 89.3922 47.128C89.7922 46.088 89.9922 44.848 89.9922 43.408C89.9922 41.248 89.5442 39.56 88.6482 38.344C87.7522 37.112 86.3362 36.496 84.4002 36.496C83.1042 36.496 82.0322 36.776 81.1842 37.336C80.3522 37.88 79.7362 38.672 79.3362 39.712C78.9362 40.736 78.7362 41.968 78.7362 43.408ZM96.0702 52V34.864H98.2302V50.08H105.718V52H96.0702ZM113.48 52H107.288V50.752L109.304 50.296V36.592L107.288 36.112V34.864H113.48V36.112L111.464 36.592V50.296L113.48 50.752V52ZM131.741 43.408C131.741 44.736 131.573 45.944 131.237 47.032C130.901 48.104 130.397 49.032 129.725 49.816C129.069 50.6 128.245 51.2 127.253 51.616C126.277 52.032 125.141 52.24 123.845 52.24C122.501 52.24 121.333 52.032 120.341 51.616C119.349 51.184 118.525 50.584 117.869 49.816C117.213 49.032 116.725 48.096 116.405 47.008C116.085 45.92 115.925 44.712 115.925 43.384C115.925 41.624 116.213 40.088 116.789 38.776C117.365 37.464 118.237 36.44 119.405 35.704C120.589 34.968 122.077 34.6 123.869 34.6C125.581 34.6 127.021 34.968 128.189 35.704C129.357 36.424 130.237 37.448 130.829 38.776C131.437 40.088 131.741 41.632 131.741 43.408ZM118.205 43.408C118.205 44.848 118.405 46.088 118.805 47.128C119.205 48.168 119.821 48.968 120.653 49.528C121.501 50.088 122.565 50.368 123.845 50.368C125.141 50.368 126.197 50.088 127.013 49.528C127.845 48.968 128.461 48.168 128.861 47.128C129.261 46.088 129.461 44.848 129.461 43.408C129.461 41.248 129.013 39.56 128.117 38.344C127.221 37.112 125.805 36.496 123.869 36.496C122.573 36.496 121.501 36.776 120.653 37.336C119.821 37.88 119.205 38.672 118.805 39.712C118.405 40.736 118.205 41.968 118.205 43.408Z" fill="white"/>
</svg>
