<?xml version="1.0" encoding="UTF-8"?>
<svg xmlns="http://www.w3.org/2000/svg" viewBox="0 0 28.35 28.35">
  <defs>
    <style>
      .cls-1 {
        fill: #fff;
        fill-rule: evenodd;
      }

      .cls-2 {
        fill: #2c2c2c;
      }
    </style>
  </defs>
  <g id="Layer_5" data-name="Layer 5">
    <rect class="cls-2" y="0" width="28.35" height="28.35"/>
  </g>
  <g id="Layer_3" data-name="Layer 3">
    <g id="WA_Logo" data-name="WA Logo">
      <path class="cls-1" d="M21.77,6.54c-2.02-2.02-4.7-3.13-7.55-3.13C8.33,3.41,3.55,8.2,3.54,14.08c0,1.88,.49,3.72,1.42,5.33l-1.51,5.53,5.66-1.48c1.56,.85,3.31,1.3,5.1,1.3h0c5.88,0,10.67-4.79,10.67-10.67,0-2.85-1.11-5.53-3.12-7.55Zm-7.55,16.42h0c-1.59,0-3.15-.43-4.52-1.24l-.32-.19-3.36,.88,.9-3.27-.21-.34c-.89-1.41-1.36-3.04-1.36-4.72,0-4.89,3.98-8.87,8.88-8.87,2.37,0,4.6,.92,6.27,2.6,1.67,1.68,2.6,3.9,2.6,6.27,0,4.89-3.98,8.87-8.87,8.87Zm4.87-6.64c-.27-.13-1.58-.78-1.82-.87-.24-.09-.42-.13-.6,.13s-.69,.87-.84,1.05c-.16,.18-.31,.2-.58,.07-.27-.13-1.13-.41-2.14-1.32-.79-.71-1.33-1.58-1.48-1.85s-.02-.41,.12-.54c.12-.12,.27-.31,.4-.47,.13-.16,.18-.27,.27-.44,.09-.18,.04-.33-.02-.47-.07-.13-.6-1.45-.82-1.98-.22-.52-.44-.45-.6-.46-.16,0-.33,0-.51,0s-.47,.07-.71,.33c-.24,.27-.93,.91-.93,2.22s.96,2.58,1.09,2.76c.13,.18,1.88,2.87,4.56,4.03,.64,.27,1.13,.44,1.52,.56,.64,.2,1.22,.17,1.68,.11,.51-.08,1.58-.65,1.8-1.27,.22-.62,.22-1.16,.16-1.27-.07-.11-.24-.18-.51-.31Z"/>
    </g>
  </g>
</svg>